<?xml version="1.0" standalone="no"?>
<!DOCTYPE svg PUBLIC "-//W3C//DTD SVG 20010904//EN"
 "http://www.w3.org/TR/2001/REC-SVG-20010904/DTD/svg10.dtd">
<svg version="1.0" xmlns="http://www.w3.org/2000/svg"
 width="1024.000000pt" height="1024.000000pt" viewBox="0 0 1024.000000 1024.000000"
 preserveAspectRatio="xMidYMid meet">

<g transform="translate(0.000000,1024.000000) scale(0.100000,-0.100000)"
fill="#000000" stroke="none">
<path d="M0 5120 l0 -5120 5120 0 5120 0 0 5120 0 5120 -5120 0 -5120 0 0
-5120z m5359 3485 c368 -33 758 -123 1005 -233 27 -12 50 -22 52 -22 12 0 177
-83 281 -141 432 -242 777 -549 1073 -956 171 -235 323 -506 420 -748 28 -70
45 -110 58 -137 2 -5 0 -8 -5 -8 -4 0 -14 15 -22 33 -7 17 -24 55 -37 84 -13
28 -24 55 -24 59 0 12 -81 180 -123 254 -11 19 -27 49 -36 65 -8 17 -27 48
-43 69 -15 21 -28 43 -28 48 0 5 -5 14 -10 21 -6 7 -36 50 -67 97 -31 46 -69
98 -85 115 -15 16 -34 42 -41 58 -6 15 -15 27 -19 27 -3 0 -22 22 -41 49 -49
67 -310 334 -382 389 -33 26 -98 75 -145 109 -47 35 -90 67 -97 73 -7 5 -15
10 -18 10 -3 0 -31 16 -61 35 -30 19 -59 35 -64 35 -6 0 -10 4 -10 8 0 5 -16
14 -35 22 -19 8 -35 17 -35 22 0 4 -8 8 -19 8 -10 0 -30 9 -45 21 -14 11 -30
17 -36 14 -5 -3 -10 -2 -10 4 0 5 -10 13 -22 17 -13 3 -48 17 -78 31 -84 37
-88 39 -187 72 -50 17 -100 31 -112 31 -11 0 -22 4 -25 9 -5 8 -110 34 -151
37 -11 1 -45 6 -75 12 -276 55 -618 65 -1360 38 -742 -27 -1296 -16 -1457 28
-28 7 -85 17 -125 22 -40 4 -75 8 -78 9 -53 14 -113 31 -190 54 -52 16 -176
50 -275 76 -186 49 -215 59 -215 75 0 5 8 11 18 13 9 3 645 5 1412 6 1176 1
1422 -2 1569 -14z m-2931 -75 c3 0 3 -3 0 -6 -7 -6 -78 22 -78 31 0 3 16 -2
36 -10 20 -8 39 -15 42 -15z m1052 -915 c30 -9 70 -20 89 -25 19 -5 46 -18 60
-30 14 -11 53 -33 86 -48 33 -15 89 -42 125 -61 36 -18 97 -50 136 -70 78 -40
100 -55 115 -82 9 -17 1 -18 -113 -18 -119 0 -158 -4 -177 -15 -5 -3 -37 -10
-72 -15 -35 -6 -73 -12 -84 -15 -218 -56 -351 -86 -373 -85 -15 1 -40 -3 -55
-10 -16 -6 -39 -11 -52 -11 -12 0 -36 -7 -51 -15 -16 -8 -39 -15 -50 -15 -12
0 -38 -7 -58 -15 -20 -8 -38 -15 -41 -15 -17 2 -85 -14 -111 -26 -72 -32 -151
-46 -196 -34 -76 21 -198 113 -198 149 0 32 77 136 155 209 127 119 417 248
605 269 30 3 56 6 57 7 7 6 156 -16 203 -29z m1290 -382 c41 -39 73 -73 70
-76 -3 -3 -70 59 -150 136 -80 78 -111 112 -70 77 41 -36 108 -97 150 -137z
m482 -148 c3 -3 40 -8 82 -10 180 -10 462 -81 477 -121 5 -14 8 -15 9 -4 0 12
2 12 10 -2 6 -10 19 -14 32 -12 l23 5 -22 -10 c-33 -15 -28 -25 7 -17 17 3 30
1 30 -4 0 -6 7 -10 16 -10 8 0 12 4 9 10 -4 6 1 7 11 3 12 -4 14 -8 5 -11 -9
-3 -8 -9 5 -24 16 -17 16 -21 4 -30 -12 -8 -11 -9 4 -4 23 8 56 -2 56 -16 0
-6 -6 -6 -15 2 -13 10 -15 9 -15 -9 0 -12 6 -21 13 -19 6 1 25 -10 41 -25 16
-15 36 -25 43 -22 8 2 12 1 9 -4 -9 -14 20 -32 39 -24 13 5 16 3 10 -6 -5 -10
-2 -11 13 -7 16 6 21 1 27 -22 3 -16 5 -33 4 -38 -4 -21 3 -33 26 -48 24 -16
25 -16 25 8 0 15 -7 27 -17 30 -11 3 -7 4 7 3 15 -1 24 3 23 10 -2 8 4 10 15
6 15 -6 14 -3 -3 18 l-20 24 28 -24 c31 -28 35 -45 8 -36 -11 3 -23 0 -27 -7
-4 -6 -2 -14 4 -16 15 -5 16 -32 2 -32 -5 0 -10 -7 -10 -15 0 -18 26 -20 33
-2 3 9 9 9 24 0 13 -7 24 -8 34 -1 11 7 11 11 2 15 -7 2 -13 12 -13 21 1 15 3
14 15 -2 8 -11 15 -17 15 -13 0 5 6 2 14 -5 15 -14 11 -29 -7 -27 -45 5 -48
-10 -7 -34 34 -21 64 -80 54 -110 -6 -19 -5 -19 17 1 27 26 54 12 43 -21 -5
-15 -3 -19 9 -14 11 4 14 2 10 -9 -4 -11 -8 -12 -20 -3 -7 7 -12 18 -9 25 3 7
-2 15 -10 18 -8 3 -14 4 -14 2 0 -3 -3 -13 -6 -23 -5 -15 -4 -15 5 -3 9 13 11
13 11 -2 0 -19 35 -42 49 -34 5 3 14 -1 21 -9 10 -12 9 -15 -4 -15 -14 0 -15
-4 -6 -20 6 -11 17 -20 25 -20 7 0 15 -6 17 -12 3 -7 7 -3 10 10 4 15 -5 38
-34 77 -21 30 -37 55 -34 55 4 0 8 0 11 0 3 0 5 -3 4 -6 0 -4 3 -10 8 -13 21
-15 71 -89 65 -96 -13 -12 -8 -54 6 -60 9 -3 12 -13 9 -25 -3 -11 -1 -18 3
-15 12 8 23 -13 14 -27 -12 -19 -16 -106 -4 -88 8 13 10 12 10 -5 1 -16 4 -14
17 10 l16 30 16 -33 c12 -27 13 -35 2 -41 -8 -5 -9 -11 -4 -14 6 -4 15 5 22
19 13 30 14 37 2 30 -5 -4 -7 4 -4 16 4 19 3 20 -6 8 -13 -18 -15 -1 -2 19 6
10 12 4 20 -22 7 -20 25 -62 40 -94 16 -32 41 -98 55 -148 15 -49 34 -110 42
-134 8 -25 14 -54 13 -65 0 -12 -2 -16 -4 -11 -1 6 -11 38 -20 73 -10 34 -22
62 -27 62 -10 0 -10 -8 -2 -49 4 -17 10 -28 15 -25 5 3 9 -2 9 -11 0 -9 -4
-14 -9 -10 -12 7 -17 -2 -25 -48 -6 -34 -5 -39 14 -44 19 -5 21 -12 18 -44 -4
-41 0 -47 20 -27 9 9 12 9 12 0 0 -7 -4 -12 -10 -12 -5 0 -10 -18 -10 -40 0
-34 3 -40 21 -40 20 0 21 3 16 78 -4 45 -3 64 2 46 4 -17 11 -35 14 -41 4 -6
9 -51 12 -99 3 -49 10 -133 16 -188 12 -102 -1 -372 -22 -461 -5 -22 -11 -53
-14 -70 -15 -114 -94 -403 -106 -390 -3 2 -5 -4 -6 -13 -6 -85 -166 -381 -291
-537 -67 -83 -81 -97 -93 -90 -3 3 -15 -5 -25 -18 l-19 -22 23 19 c12 11 22
15 22 9 0 -15 -123 -129 -219 -202 -152 -116 -396 -225 -596 -265 -156 -31
-233 -37 -495 -37 l-265 0 -37 43 -38 43 40 40 c44 45 60 80 60 131 0 45 -12
69 -61 120 l-40 40 35 32 c82 74 92 174 25 247 -18 21 -18 22 22 75 42 56 89
141 89 160 0 7 -9 5 -22 -4 -12 -9 -26 -16 -30 -16 -13 0 -9 72 6 126 8 27 15
73 15 103 1 59 36 148 75 191 26 28 81 120 81 135 1 6 8 21 16 35 47 74 119
200 119 207 0 5 11 24 24 43 13 19 38 64 55 100 18 36 37 73 42 82 5 10 9 27
9 38 0 11 5 20 10 20 6 0 10 12 10 26 0 14 4 23 10 19 6 -3 10 1 10 10 0 8 4
23 9 33 5 9 14 29 20 45 6 15 15 37 20 50 29 68 84 278 96 362 4 28 9 58 11
67 1 10 8 73 15 140 23 237 -5 482 -82 711 -47 139 -78 208 -154 342 -19 33
-40 72 -46 88 -6 15 -15 27 -21 27 -5 0 -6 5 -3 10 6 10 58 14 67 5z m-1562
-40 c19 -3 42 -5 50 -5 34 -2 100 -25 100 -35 0 -10 126 -75 144 -75 5 0 25
-12 45 -27 19 -15 40 -28 46 -29 27 -5 145 -57 156 -70 6 -8 17 -14 23 -14 6
0 4 5 -4 11 -12 9 -11 10 5 4 11 -4 52 -15 92 -25 39 -10 91 -28 114 -39 24
-12 48 -21 55 -21 27 0 123 -112 139 -161 9 -27 20 -49 24 -49 4 0 7 -9 8 -19
1 -11 13 -48 27 -83 14 -36 26 -68 26 -71 0 -4 9 -16 19 -26 20 -20 85 -21
182 -3 117 22 144 -33 144 -298 0 -192 -15 -287 -75 -472 -53 -162 -154 -348
-212 -391 -39 -29 -70 -16 -150 61 -100 96 -98 94 -98 87 0 -3 -9 -1 -20 5
-14 8 -20 8 -20 0 0 -6 -4 -8 -10 -5 -5 3 -23 -14 -39 -37 -17 -24 -37 -50
-46 -59 -8 -9 -15 -19 -15 -23 0 -4 -21 -39 -47 -79 -55 -82 -59 -90 -91 -149
-13 -24 -49 -76 -80 -116 -32 -41 -71 -92 -88 -115 -18 -22 -30 -46 -28 -51 2
-6 0 -45 -5 -86 l-8 -75 -3 75 -3 75 -12 -85 -12 -85 -2 59 c-1 51 -3 57 -16
46 -8 -7 -15 -21 -15 -30 0 -10 -4 -20 -10 -22 -6 -2 -12 -90 -15 -220 l-5
-218 25 0 c13 0 31 7 39 16 9 8 16 11 16 6 0 -6 51 1 113 15 317 69 327 71
327 54 0 -5 -19 -18 -42 -30 -24 -12 -36 -21 -28 -22 10 0 11 -2 3 -6 -7 -2
-13 -11 -13 -18 0 -8 -24 -23 -52 -34 -64 -24 -37 -27 63 -6 40 9 74 14 76 12
8 -8 -87 -38 -227 -71 -319 -76 -412 -96 -590 -130 -102 -19 -253 -49 -337
-66 -83 -16 -162 -30 -175 -29 -13 1 49 25 137 54 88 29 151 54 140 54 -11 1
-34 -3 -51 -8 -49 -14 -161 -24 -145 -13 8 6 66 29 130 53 64 23 124 49 134
57 15 14 17 38 15 266 -1 138 -3 230 -5 204 -7 -83 -23 -52 -23 43 0 53 -4 88
-9 84 -5 -3 -12 7 -14 22 -2 18 -5 10 -6 -22 -3 -41 -4 -46 -11 -25 -4 14 -8
39 -9 56 -1 25 -16 47 -71 104 -66 68 -150 179 -150 199 0 5 -7 15 -16 22 -9
7 -20 22 -25 34 -10 22 -42 79 -77 135 -12 19 -26 46 -32 60 -5 14 -15 34 -22
45 -6 11 -20 36 -30 55 -10 19 -22 42 -28 50 -15 25 -60 128 -60 138 0 5 -6
15 -14 21 -7 6 -19 33 -27 59 -7 26 -23 66 -35 89 -12 23 -36 86 -54 140 -18
54 -36 106 -41 115 -5 9 -16 54 -24 100 -9 46 -20 92 -24 103 -27 61 -38 357
-17 439 11 44 72 131 114 162 20 15 41 34 45 41 4 7 18 13 29 13 12 0 31 8 42
18 12 10 41 24 66 31 25 7 56 19 70 26 14 7 38 15 55 19 32 8 133 76 176 119
15 15 32 27 38 27 6 0 11 5 11 10 0 6 9 10 20 10 12 0 34 7 50 15 17 9 32 15
35 15 23 -1 27 3 10 11 -16 7 -13 8 15 5 19 -1 58 1 85 5 28 4 61 5 75 3 14
-3 41 -7 60 -9z m2366 -212 c-6 -6 -36 9 -36 18 0 5 9 4 20 -3 10 -7 18 -14
16 -15z m49 -23 c3 -6 -1 -7 -9 -4 -18 7 -21 14 -7 14 6 0 13 -4 16 -10z m41
-37 c11 -10 26 -19 34 -21 24 -5 32 -19 11 -17 -11 1 -29 9 -39 18 -10 9 -24
17 -30 17 -6 0 -14 5 -17 10 -10 17 20 11 41 -7z m84 -83 c0 -5 -4 -10 -9 -10
-6 0 -13 5 -16 10 -3 6 1 10 9 10 9 0 16 -4 16 -10z m235 -150 c10 -11 16 -20
13 -20 -3 0 -13 9 -23 20 -10 11 -16 20 -13 20 3 0 13 -9 23 -20z m-50 -9 c3
-5 2 -12 -3 -15 -5 -3 -9 1 -9 9 0 17 3 19 12 6z m60 -89 c-2 -3 -11 1 -20 8
-9 7 -13 15 -10 18 8 8 -16 32 -27 26 -5 -3 -5 -11 2 -19 7 -8 7 -16 2 -19
-16 -9 -24 25 -10 41 11 13 16 11 40 -18 15 -18 26 -35 23 -37z m104 -52 c148
-216 276 -521 330 -790 48 -240 59 -558 28 -791 -59 -431 -208 -807 -434
-1092 -281 -355 -628 -555 -1060 -612 -183 -24 -231 -16 -58 9 191 29 300 57
438 112 398 160 732 497 917 925 233 538 261 1168 78 1723 -66 201 -222 501
-322 616 l-21 25 22 -19 c13 -10 50 -58 82 -106z m1681 -60 c0 -5 -5 -10 -11
-10 -5 0 -7 5 -4 10 3 6 8 10 11 10 2 0 4 -4 4 -10z m-3074 -41 c12 -19 34
-209 34 -294 0 -194 -47 -438 -120 -625 -58 -148 -169 -349 -192 -350 -18 0
-4 35 61 163 89 176 153 370 182 552 19 124 21 164 16 353 -5 194 -2 234 19
201z m1434 -54 c0 -3 10 -22 23 -43 13 -20 21 -46 19 -57 l-5 -20 -8 20 c-6
15 -8 16 -8 4 -1 -9 -10 -19 -21 -22 -17 -4 -19 -1 -14 21 4 15 10 31 14 35 4
5 2 21 -6 35 -8 15 -14 33 -14 40 0 7 -4 11 -9 8 -10 -6 -22 30 -13 38 5 5 42
-47 42 -59z m1679 -25 c0 -8 -8 5 -19 29 -11 24 -20 48 -19 55 1 15 37 -65 38
-84z m28 -92 c-3 -8 -6 -5 -6 6 -1 11 2 17 5 13 3 -3 4 -12 1 -19z m50 -210
c-3 -7 -5 -2 -5 12 0 14 2 19 5 13 2 -7 2 -19 0 -25z m20 -90 c-3 -8 -6 -5 -6
6 -1 11 2 17 5 13 3 -3 4 -12 1 -19z m-6083 -40 c14 -14 35 -56 51 -106 36
-111 76 -200 159 -355 37 -71 70 -145 73 -165 3 -28 -6 -62 -36 -136 -23 -55
-47 -104 -54 -108 -14 -9 -89 -11 -111 -2 -8 3 -34 31 -57 62 -24 32 -48 62
-54 67 -19 16 -129 214 -167 300 -60 132 -86 207 -102 294 -20 105 -21 96 15
122 50 35 98 48 181 49 66 0 80 -3 102 -22z m4503 -120 c-3 -8 -6 -5 -6 6 -1
11 2 17 5 13 3 -3 4 -12 1 -19z m36 -38 c3 -11 1 -18 -4 -14 -5 3 -9 12 -9 20
0 20 7 17 13 -6z m-26 -12 c-3 -8 -6 -5 -6 6 -1 11 2 17 5 13 3 -3 4 -12 1
-19z m-4635 -688 c47 -74 112 -175 145 -225 59 -88 103 -166 103 -182 0 -4
-10 8 -22 27 -86 140 -182 279 -188 275 -5 -3 -12 0 -16 6 -4 8 -3 9 4 5 19
-12 15 -3 -54 111 -69 114 -177 321 -188 363 -4 14 24 -36 62 -110 38 -74 107
-196 154 -270z m169 -353 c-10 -9 -11 -8 -5 6 3 10 9 15 12 12 3 -3 0 -11 -7
-18z m118 -147 c11 -22 10 -23 -2 -8 -8 10 -17 15 -20 11 -4 -3 -7 -2 -7 4 0
10 12 25 15 21 1 -2 8 -14 14 -28z m63 -145 c9 -20 9 -20 -6 -1 -9 11 -16 27
-15 35 0 14 1 14 6 1 3 -8 10 -24 15 -35z m59 -188 c-10 -9 -11 -8 -5 6 3 10
9 15 12 12 3 -3 0 -11 -7 -18z m33 -57 c5 -17 4 -20 -2 -10 -5 8 -13 26 -16
40 -5 17 -4 20 2 10 5 -8 13 -26 16 -40z m1770 -88 c3 -5 0 -9 -7 -10 -7 0
-32 -3 -57 -7 l-45 -5 40 14 c49 17 62 18 69 8z m-1664 -112 c6 -11 8 -20 6
-20 -3 0 -10 9 -16 20 -6 11 -8 20 -6 20 3 0 10 -9 16 -20z m145 -16 c30 -14
39 -14 100 1 36 9 68 15 71 13 5 -6 -226 -79 -249 -78 -10 0 -28 -5 -40 -11
-20 -9 -20 -9 -5 4 16 13 16 15 -3 35 -11 12 -16 22 -11 22 5 0 17 -9 27 -20
10 -11 22 -20 26 -20 4 0 -4 12 -18 26 -26 26 -26 27 -7 41 21 16 57 12 109
-13z m185 -104 c-14 -11 -28 -20 -32 -20 -5 0 -8 -7 -8 -15 0 -11 11 -15 36
-15 120 0 -100 -90 -270 -110 -86 -10 -116 -3 -116 31 0 27 44 69 72 69 13 0
34 7 46 16 23 16 214 61 267 63 l30 1 -25 -20z m1399 -14 c-2 -3 -81 -19 -174
-36 -94 -17 -309 -58 -479 -91 -327 -64 -441 -75 -216 -22 176 42 244 55 550
103 140 23 260 42 265 45 14 5 59 6 54 1z m-53 -101 c-39 -20 -67 -21 -40 0
10 8 30 14 44 15 25 0 25 0 -4 -15z m-1456 -112 c0 -1 -28 -11 -62 -22 -35
-10 -72 -23 -83 -27 -13 -5 -10 1 10 18 17 14 36 27 43 29 14 5 92 6 92 2z
m116 -109 c-30 -29 -23 -44 22 -44 32 0 27 -15 -10 -33 -72 -34 -176 -60 -245
-62 -40 -1 -76 -5 -80 -8 -24 -25 -75 17 -66 54 6 22 38 42 56 36 7 -2 39 9
72 25 33 15 71 28 85 29 14 0 52 6 85 14 33 7 71 14 85 14 l25 1 -29 -26z
m1381 -20 c-3 -3 -12 -4 -19 -1 -8 3 -5 6 6 6 11 1 17 -2 13 -5z m-44 -11 c-7
-2 -19 -2 -25 0 -7 3 -2 5 12 5 14 0 19 -2 13 -5z m-283 -54 c-264 -53 -626
-120 -644 -118 -58 5 776 166 864 167 14 0 -85 -22 -220 -49z m290 -28 c-8 -5
-28 -11 -45 -15 l-30 -6 25 15 c14 8 34 14 45 14 16 0 17 -1 5 -8z m-1453
-107 c-3 -3 -12 -4 -19 -1 -8 3 -5 6 6 6 11 1 17 -2 13 -5z m126 -103 c-13
-11 -23 -24 -23 -29 0 -12 24 -22 51 -22 31 0 22 -17 -20 -33 -66 -27 -160
-48 -229 -51 -37 -2 -79 -7 -95 -11 -35 -9 -57 8 -57 46 0 30 30 55 55 45 8
-3 38 6 67 19 29 13 84 29 123 35 38 6 71 13 74 16 2 2 20 4 40 4 l36 -1 -22
-18z m1322 -47 c-20 -8 -874 -165 -891 -163 -47 3 223 58 611 124 228 39 307
50 280 39z m-1504 -174 c-24 -11 -46 -18 -49 -15 -3 3 0 5 7 5 7 0 9 5 5 12
-4 6 -3 8 2 5 6 -3 16 -2 24 4 8 5 24 9 35 9 12 0 3 -8 -24 -20z m229 -79 c0
-5 -12 -17 -27 -27 l-28 -17 43 -15 c23 -7 40 -17 37 -22 -8 -13 -121 -48
-190 -59 -78 -13 -207 -12 -222 1 -16 13 -17 50 -1 66 7 7 26 12 44 12 17 0
48 7 68 15 27 12 191 44 269 54 4 1 7 -3 7 -8z m932 -37 c-13 -9 -26 -13 -30
-9 -8 8 17 25 38 25 9 0 6 -6 -8 -16z m-749 -130 c10 -10 -20 -34 -51 -40 -30
-6 -118 13 -108 23 15 15 147 29 159 17z m181 -250 l47 -7 -3 -71 -3 -71 -46
-3 c-67 -4 -97 24 -105 101 l-7 57 35 0 c19 0 56 -3 82 -6z m427 -65 c7 -64 5
-69 -27 -69 -22 0 -23 2 -13 21 6 12 8 36 4 55 -3 19 -3 39 0 45 15 22 30 0
36 -52z m-1541 -589 c-14 -10 -27 -16 -30 -13 -6 6 30 33 44 33 6 0 0 -9 -14
-20z"/>
<path d="M5275 7050 c3 -5 8 -10 11 -10 2 0 4 5 4 10 0 6 -5 10 -11 10 -5 0
-7 -4 -4 -10z"/>
<path d="M5300 7024 c0 -11 48 -84 55 -84 3 0 -7 19 -21 43 -32 50 -34 53 -34
41z"/>
<path d="M5670 6989 c0 -5 9 -9 20 -9 11 0 20 2 20 4 0 2 -9 6 -20 9 -11 3
-20 1 -20 -4z"/>
<path d="M5360 6929 c0 -13 89 -183 89 -172 1 15 -49 120 -72 154 -10 13 -17
21 -17 18z"/>
<path d="M5868 6893 c7 -3 16 -2 19 1 4 3 -2 6 -13 5 -11 0 -14 -3 -6 -6z"/>
<path d="M6641 6074 c0 -11 3 -14 6 -6 3 7 2 16 -1 19 -3 4 -6 -2 -5 -13z"/>
<path d="M6681 6032 c-13 -24 -5 -52 15 -52 7 0 18 -8 23 -17 10 -17 10 -17
11 -1 0 9 -5 20 -10 23 -6 4 -8 11 -5 16 4 5 -2 6 -12 2 -16 -6 -16 -5 -4 11
10 12 11 20 4 27 -8 8 -14 5 -22 -9z"/>
<path d="M6640 6010 c0 -5 5 -10 10 -10 6 0 10 5 10 10 0 6 -4 10 -10 10 -5 0
-10 -4 -10 -10z"/>
<path d="M6660 5950 c0 -5 11 -10 25 -10 14 0 25 5 25 10 0 6 -11 10 -25 10
-14 0 -25 -4 -25 -10z"/>
<path d="M6732 5936 c-7 -15 -12 -35 -11 -44 1 -11 4 -8 9 8 7 23 8 23 9 3 1
-12 -3 -33 -9 -48 -5 -14 -6 -24 -1 -21 5 3 11 -1 15 -9 3 -8 10 -15 16 -15 6
0 4 7 -4 16 -9 8 -16 22 -16 30 0 21 9 17 20 -8 13 -33 11 -2 -3 61 -13 52
-13 53 -25 27z"/>
<path d="M6760 5730 c0 -5 5 -10 10 -10 6 0 10 5 10 10 0 6 -4 10 -10 10 -5 0
-10 -4 -10 -10z"/>
<path d="M6876 5272 c-4 -10 0 -43 8 -73 l15 -54 -6 70 c-6 78 -8 85 -17 57z"/>
<path d="M6891 5104 c0 -11 3 -14 6 -6 3 7 2 16 -1 19 -3 4 -6 -2 -5 -13z"/>
<path d="M6883 5005 c0 -22 2 -30 4 -17 2 12 2 30 0 40 -3 9 -5 -1 -4 -23z"/>
<path d="M6850 4789 c0 -5 5 -7 10 -4 6 3 10 8 10 11 0 2 -4 4 -10 4 -5 0 -10
-5 -10 -11z"/>
<path d="M6832 4740 c0 -8 3 -24 7 -34 7 -18 8 -18 14 -3 3 9 2 17 -3 17 -5 0
-11 8 -13 18 -3 11 -5 12 -5 2z"/>
<path d="M6811 4574 c0 -11 3 -14 6 -6 3 7 2 16 -1 19 -3 4 -6 -2 -5 -13z"/>
<path d="M6651 4184 c0 -11 3 -14 6 -6 3 7 2 16 -1 19 -3 4 -6 -2 -5 -13z"/>
<path d="M6681 4164 c0 -11 3 -14 6 -6 3 7 2 16 -1 19 -3 4 -6 -2 -5 -13z"/>
<path d="M6646 4143 c-6 -14 -5 -15 5 -6 7 7 10 15 7 18 -3 3 -9 -2 -12 -12z"/>
<path d="M6420 3750 c-6 -11 -8 -20 -6 -20 3 0 10 9 16 20 6 11 8 20 6 20 -3
0 -10 -9 -16 -20z"/>
<path d="M3500 4616 c0 -10 8 -16 22 -16 12 0 19 1 17 3 -2 1 -12 9 -21 16
-15 12 -18 11 -18 -3z"/>
<path d="M3660 4530 c-8 -5 -17 -7 -22 -4 -21 13 -29 -53 -35 -271 -3 -129 -3
-235 1 -235 5 0 59 14 122 32 l114 32 0 146 c0 80 -3 174 -6 211 l-7 65 -36 2
c-48 3 -94 12 -106 23 -6 4 -17 4 -25 -1z"/>
<path d="M3552 4501 c-12 -35 -18 -501 -6 -501 23 0 45 24 40 43 -3 12 -6 117
-7 232 -1 116 -5 221 -9 235 -6 24 -6 24 -18 -9z"/>
<path d="M3871 4416 c-5 -23 -13 -106 -17 -185 l-6 -144 43 7 c23 4 46 9 51
12 4 3 7 49 6 102 -1 53 -3 79 -5 57 -9 -83 -21 -53 -28 67 -5 92 -11 125 -20
125 -7 0 -18 -19 -24 -41z"/>
</g>
</svg>
